<svg width="144" height="32" viewBox="0 0 144 32" fill="none" xmlns="http://www.w3.org/2000/svg">
<g id="Layer_1-2">
<path id="Vector" d="M135.286 21.0351C137.212 25.0124 139.372 28.6186 141.494 31.6476L141.448 31.8295C138.903 32.0574 136.402 32.0574 133.857 31.8295C132.775 30.1513 131.603 27.7698 130.713 25.4877L125.81 31.8295C123.447 32.0574 120.492 32.0574 118.308 31.8295L127.639 20.6058C126.033 17.7878 124.514 14.6254 123.444 10.4274C125.672 10.1995 127.945 10.1995 130.172 10.4274C130.747 12.5761 131.453 14.6909 132.205 16.8008L137.125 10.4274C139.444 10.1558 141.854 10.1558 143.988 10.4274L135.279 21.0351H135.286ZM31.2946 7.56332C31.9763 7.79129 32.3403 7.38144 32.0224 6.74604L28.9316 0.430925C28.7036 -0.0225801 28.2038 -0.0686582 27.886 0.0671508L20.205 2.97492C19.5694 3.20288 19.613 3.7922 20.2511 3.97409L22.5243 4.70163C20.6611 8.92626 18.3418 15.2899 16.4785 19.2866C14.3873 23.7391 13.3416 26.8749 9.79712 26.8749C6.25261 26.8749 5.66065 24.1029 7.15997 20.1499C8.88734 15.5615 11.7962 14.1986 15.1151 15.1517C16.0249 13.8784 16.7066 11.9698 16.9783 10.2431C16.0249 9.97151 14.887 9.87935 13.9336 9.87935C8.56952 9.87935 3.25155 12.6513 1.07051 18.4668C-1.7025 25.9654 0.88855 31.8271 9.11539 31.8271C15.1612 31.8271 18.5698 29.0551 22.5704 20.5573C24.7515 15.8768 26.6171 11.2884 28.7521 6.74362L31.297 7.5609L31.2946 7.56332ZM47.2946 17.8775C45.7953 21.7845 41.2027 23.3754 32.3839 23.1474C32.3378 25.7836 34.1113 26.8288 37.338 26.8288C39.519 26.8288 41.9281 26.3292 43.6555 25.4659C44.1553 27.0107 44.2014 28.5094 43.7453 30.0106C41.0183 31.3736 37.7456 31.8271 35.4262 31.8271C26.2435 31.8271 25.062 24.9663 26.9252 19.6042C28.6987 14.5599 33.5169 9.87935 40.0625 9.87935C46.198 9.87935 48.7891 13.9245 47.2898 17.8775H47.2946ZM39.1114 14.4702C36.6102 14.4702 34.7033 16.0611 33.4757 18.787C38.9295 18.787 40.7951 17.9697 41.3386 16.6504C41.7025 15.6973 41.3386 14.4702 39.1114 14.4702ZM64.1122 14.9698C65.2039 14.9698 66.2932 15.1517 66.975 15.5615C68.1565 13.9706 68.8382 12.3797 68.9741 10.7451C67.9745 10.2916 66.2932 9.88178 64.1559 9.88178C57.0644 9.88178 51.4748 14.0167 49.4732 19.7425C47.5639 25.1506 49.0196 31.8295 57.882 31.8295C60.245 31.8295 62.6541 31.3299 64.3378 30.6024C64.8837 28.9654 64.9298 27.3769 64.4737 25.786C63.3383 26.2395 61.7007 26.6954 60.0194 26.6954C55.4729 26.6954 55.0654 23.3341 56.0188 20.47C57.0644 17.4265 59.7914 14.9722 64.1098 14.9722L64.1122 14.9698ZM95.2485 24.4667C92.5677 24.4667 91.0223 26.1473 90.4764 27.7843C89.8408 29.7826 90.6584 31.8731 93.7031 31.8731C96.2942 31.8731 97.8857 30.2822 98.4315 28.6016C99.0235 26.693 98.3854 24.4667 95.2485 24.4667ZM90.5662 22.512C88.4288 28.5094 83.0647 31.8271 77.065 31.8271C68.8382 31.8271 66.5189 25.4659 68.6563 19.3763C70.5656 13.9682 75.5657 9.87935 82.1113 9.87935C90.2945 9.87935 92.7933 16.1945 90.5662 22.512ZM81.1118 14.834C78.067 14.834 76.0218 17.6059 75.1581 20.2421C74.0664 23.5597 74.6584 26.967 78.1131 26.967C81.0681 26.967 83.1133 24.377 84.023 21.6511C85.0687 18.4693 84.7048 14.8364 81.1142 14.8364L81.1118 14.834ZM112.083 26.693C107.537 26.693 107.129 23.3317 108.082 20.4676C109.128 17.424 111.855 14.9698 116.173 14.9698C117.265 14.9698 118.355 15.1517 119.036 15.5615C120.218 13.9706 120.899 12.3797 121.035 10.7451C120.036 10.2916 118.355 9.88178 116.217 9.88178C109.126 9.88178 103.536 14.0167 101.534 19.7425C99.6252 25.1506 101.081 31.8295 109.943 31.8295C112.306 31.8295 114.715 31.3299 116.399 30.6024C116.945 28.9654 116.991 27.3769 116.535 25.786C115.4 26.2395 113.762 26.6954 112.081 26.6954L112.083 26.693Z" fill="#2FD180"/>
</g>
</svg>
