<svg width="32" height="32" viewBox="0 0 32 32" fill="none" xmlns="http://www.w3.org/2000/svg">
<path id="Vector" d="M9.06404 32C15.0788 32 18.4999 29.2131 22.4781 20.6711C24.6476 15.9651 26.5027 11.3508 28.6279 6.78336L31.1604 7.60646C31.8379 7.83461 32.2009 7.42308 31.8843 6.78336L28.8094 0.433381C28.5836 -0.0229312 28.0855 -0.069842 27.769 0.0687575L20.127 2.99215C19.4939 3.2203 19.5382 3.81521 20.1713 3.99646L22.4316 4.72784C20.5786 8.97751 18.2719 15.3723 16.4168 19.3917C14.3359 23.8695 13.2976 27.0211 9.77103 27.0211C6.2445 27.0211 5.65566 24.2341 7.14775 20.2595C8.86565 15.6452 11.7591 14.2741 15.0598 15.2337C15.9652 13.9543 16.6426 12.0352 16.9128 10.2995C15.9631 10.0245 14.8319 9.93494 13.8843 9.93494C8.54912 9.93494 3.25821 12.7218 1.08867 18.5686C-1.714 26.1063 0.877626 32 9.06195 32H9.06404Z" fill="#02F67C"/>
</svg>
