<svg width="25" height="24" viewBox="0 0 25 24" fill="none" xmlns="http://www.w3.org/2000/svg">
<g id="edit">
<path id="Icon" d="M11.5512 4.89768H5.28915C4.81464 4.89768 4.35956 5.08618 4.02403 5.42171C3.6885 5.75724 3.5 6.21231 3.5 6.68682V19.2109C3.5 19.6854 3.6885 20.1404 4.02403 20.476C4.35956 20.8115 4.81464 21 5.28915 21H17.8132C18.2877 21 18.7428 20.8115 19.0783 20.476C19.4138 20.1404 19.6023 19.6854 19.6023 19.2109V12.9488M18.2605 3.55582C18.6163 3.19993 19.099 3 19.6023 3C20.1056 3 20.5883 3.19993 20.9442 3.55582C21.3001 3.9117 21.5 4.39438 21.5 4.89768C21.5 5.40097 21.3001 5.88365 20.9442 6.23954L12.4457 14.738L8.86744 15.6326L9.76201 12.0543L18.2605 3.55582Z" stroke="#242424" stroke-width="1.5" stroke-linecap="round" stroke-linejoin="round"/>
</g>
</svg>
