<svg width="24" height="24" viewBox="0 0 24 24" fill="none" xmlns="http://www.w3.org/2000/svg">
<g clip-path="url(#clip0_260_1710)">
<path d="M11.5982 13.5167L11.5985 13.5169C11.7122 13.6044 11.8516 13.6518 11.995 13.6518C12.1384 13.6518 12.2778 13.6044 12.3915 13.5169L12.3915 13.5169L14.4871 11.9023L21.9329 19.348H2.06713L9.51266 11.9025L11.5982 13.5167ZM22.5 3.34805H1.5C1.06239 3.34805 0.642709 3.52189 0.333274 3.83132C0.0238388 4.14076 -0.15 4.56044 -0.15 4.99805V18.998C-0.15 19.4357 0.0238389 19.8553 0.333274 20.1648C0.642709 20.4742 1.06239 20.648 1.5 20.648H22.5C22.9376 20.648 23.3573 20.4742 23.6667 20.1648C23.9762 19.8553 24.15 19.4357 24.15 18.998V4.99805C24.15 4.56044 23.9762 4.14076 23.6667 3.83132C23.3573 3.52189 22.9376 3.34805 22.5 3.34805ZM12 12.1784L2.25928 4.64805H21.7407L12 12.1784ZM8.47846 11.0975L1.15 18.4307V5.43356L8.47846 11.0975ZM22.85 5.43356V18.4307L15.5215 11.0975L22.85 5.43356Z" fill="white" stroke="white" stroke-width="0.3"/>
</g>
<defs>
<clipPath id="clip0_260_1710">
<rect width="24" height="24" fill="white"/>
</clipPath>
</defs>
</svg>
