<svg width="24" height="24" viewBox="0 0 24 24" fill="none" xmlns="http://www.w3.org/2000/svg">
<g id="Icon/Email">
<g id="&#240;&#159;&#166;&#134; icon &#34;email&#34;">
<g id="Group">
<path id="Vector" d="M7.55556 5H16.4444C18.0467 5 19.1378 5.002 19.9544 5.1C20.7389 5.196 21.1022 5.363 21.3489 5.586C21.5967 5.808 21.7822 6.136 21.8878 6.841C21.9978 7.576 22 8.558 22 10V14C22 15.443 21.9978 16.424 21.8889 17.159C21.7822 17.865 21.5967 18.192 21.3489 18.414C21.1022 18.637 20.7378 18.804 19.9544 18.899C19.1378 18.998 18.0478 19 16.4444 19H7.55556C5.95333 19 4.86222 18.998 4.04556 18.9C3.26111 18.804 2.89778 18.637 2.65111 18.414C2.40333 18.192 2.21778 17.864 2.11222 17.159C2.00222 16.424 2 15.443 2 14V10C2 8.558 2.00222 7.576 2.11111 6.841C2.21778 6.135 2.40333 5.808 2.65111 5.586C2.89778 5.363 3.26222 5.196 4.04556 5.101C4.86222 5.002 5.95333 5 7.55556 5Z" stroke="white" stroke-width="1.5"/>
<path id="Vector_2" d="M3.10938 6L9.3316 10.2C10.616 11.067 11.2572 11.5 11.9983 11.5C12.7394 11.5 13.3805 11.067 14.6649 10.2L20.8872 6" stroke="white" stroke-width="1.5"/>
</g>
</g>
</g>
</svg>
