<svg width="24" height="24" viewBox="0 0 24 24" fill="none" xmlns="http://www.w3.org/2000/svg">
<g clip-path="url(#clip0_336_14483)">
<path d="M20.767 11.6529C20.976 11.7437 20.9917 11.7802 21.0062 11.9919C21.0062 13.6868 21.0222 15.3818 21.0059 17.0766C20.974 19.0997 19.2217 20.9635 17.0745 20.9837C13.6929 20.9937 10.3112 21.0149 6.92998 20.9833C4.91007 20.9522 3.05651 19.2153 3.02306 17.0764C2.99231 13.6868 2.99231 10.2969 3.02306 6.90741C3.05489 4.87725 4.81458 3.02028 6.95444 3.00013H12.0145C12.0145 3.00013 12.2504 3.03322 12.3339 3.19436C12.4461 3.41088 12.2736 3.70167 12.0145 3.71948C10.3226 3.71948 8.63068 3.70383 6.93879 3.71966C5.28305 3.74519 3.75823 5.16427 3.74204 6.93637C3.73197 10.3133 3.71165 13.6906 3.74222 17.0676C3.76848 18.7298 5.20177 20.2478 6.95894 20.2643C10.3361 20.2744 13.7132 20.2956 17.0901 20.2641C18.747 20.2386 20.2698 18.8044 20.2869 17.0474V11.9919C20.2869 11.9919 20.3827 11.5454 20.767 11.6529ZM20.5998 3.00013C20.6068 2.99996 20.6145 2.99996 20.6226 3.00013H20.6466L20.6669 3.00085L20.6723 3.00103L20.6732 3.00121H20.6748C20.8575 3.02279 20.999 3.17529 21.0062 3.35981V9.11453C20.9917 9.48535 20.3074 9.63659 20.2869 9.11453V4.22805L12.2687 12.2462C11.9598 12.5271 11.7911 12.3163 11.7073 12.1791C11.6237 12.0417 11.6505 11.8581 11.7602 11.7376L19.7783 3.7193L14.8636 3.7184C14.598 3.68693 14.6073 3.61301 14.5595 3.49738C14.4696 3.28032 14.6375 3.01003 14.8918 3.00013H20.5998Z" fill="white" stroke="white" stroke-width="0.5"/>
</g>
<defs>
<clipPath id="clip0_336_14483">
<rect width="24" height="24" fill="white"/>
</clipPath>
</defs>
</svg>
