<svg width="24" height="24" viewBox="0 0 24 24" fill="none" xmlns="http://www.w3.org/2000/svg">
<g clip-path="url(#clip0_260_1722)">
<path d="M21.241 11.5805L21.2568 11.5873C21.3577 11.6312 21.4851 11.6884 21.5647 11.8057C21.6399 11.9165 21.6488 12.0487 21.6552 12.1426C21.6554 12.1461 21.6557 12.1495 21.6559 12.1529L21.6565 12.1615V12.1701C21.6565 12.7531 21.6583 13.3369 21.6601 13.9212C21.6638 15.1046 21.6675 16.2899 21.6561 17.4739L21.6561 17.4754C21.6208 19.7153 19.6889 21.7727 17.3095 21.7951L17.3079 21.7951C16.6942 21.7969 16.0803 21.7991 15.4664 21.8013C12.5547 21.8116 9.64112 21.8219 6.72796 21.7947L6.72645 21.7947C4.49013 21.7602 2.44395 19.845 2.40689 17.4752L2.40686 17.4735C2.37479 13.938 2.37479 10.4021 2.40687 6.86661L2.40688 6.86496L2.40689 6.86496C2.44213 4.61711 4.38235 2.56739 6.75344 2.54507L6.7558 2.54505V2.54506H12.0315H12.0489L12.0662 2.54749L12.0315 2.79506C12.0662 2.54749 12.0663 2.5475 12.0664 2.54751L12.0665 2.54753L12.0669 2.54758L12.0676 2.54768L12.0694 2.54795L12.074 2.54867L12.0876 2.55102C12.0983 2.553 12.1126 2.5559 12.1296 2.55998C12.1631 2.56802 12.2093 2.58116 12.2601 2.60194C12.3541 2.64042 12.5027 2.72097 12.5864 2.88253C12.6924 3.08699 12.6572 3.3123 12.5573 3.47808C12.4569 3.64459 12.2757 3.77887 12.0486 3.79447L12.0401 3.79506H12.0315C11.4441 3.79506 10.8575 3.79326 10.2713 3.79146C9.0943 3.78784 7.91908 3.78423 6.74259 3.79523C5.14669 3.82027 3.67249 5.19496 3.65648 6.9006C3.65472 7.49083 3.65266 8.08099 3.6506 8.67107C3.64037 11.6015 3.63015 14.5303 3.65665 17.4589C3.68243 19.0606 5.07096 20.5287 6.76212 20.5451C6.76236 20.5451 6.7626 20.5451 6.76284 20.5451L6.76048 20.7951C7.37545 20.7969 7.99042 20.7991 8.60538 20.8013C11.5115 20.8116 14.4175 20.822 17.3235 20.7949L21.241 11.5805ZM21.241 11.5805L21.2245 11.5759C21.0751 11.5341 20.9351 11.5423 20.8122 11.5944C20.6934 11.6448 20.6105 11.7277 20.5549 11.8035C20.4995 11.879 20.4648 11.9563 20.4441 12.0117C20.4335 12.0401 20.426 12.0645 20.4209 12.0827C20.4183 12.0918 20.4163 12.0994 20.4149 12.1053L20.4131 12.1128L20.4125 12.1156L20.4123 12.1167L20.4121 12.1172L20.4121 12.1174C20.4121 12.1175 20.4121 12.1176 20.6565 12.1701L20.4121 12.1176L20.4065 12.1435V12.1701V17.4398C20.3894 19.1305 18.9163 20.5198 17.3204 20.5449L21.241 11.5805ZM6.7303 21.5447C9.64167 21.5719 12.5533 21.5616 15.465 21.5513C16.079 21.5491 16.6931 21.5469 17.3072 21.5451C19.5459 21.5241 21.3729 19.5808 21.4061 17.4714C21.4175 16.2891 21.4138 15.1066 21.4101 13.9241C21.4083 13.3394 21.4065 12.7547 21.4065 12.1701C21.3913 11.9494 21.375 11.9113 21.1571 11.8166L6.7303 21.5447ZM6.7303 21.5447C4.6243 21.5123 2.69173 19.7014 2.65686 17.4713C2.6248 13.9373 2.6248 10.4029 2.65686 6.86888L6.7303 21.5447ZM14.454 3.40918C14.2919 3.01775 14.5875 2.56214 15.0218 2.54525L15.0315 2.54487V2.54506H20.9799C20.9896 2.54487 20.9994 2.54488 21.0091 2.54506H21.0315H21.0403L21.0403 2.54522L21.061 2.54595L21.0615 2.54597L21.0666 2.54614L21.0681 2.54619H21.0756L21.0786 2.54654L21.0872 2.54682L21.0964 2.54867C21.4059 2.58825 21.6441 2.84685 21.6563 3.16032L21.6567 3.17006H21.6565V9.17006V9.17988L21.6563 9.17988C21.6422 9.53879 21.3201 9.73977 21.0606 9.76773C20.9197 9.78291 20.7579 9.75538 20.625 9.6498C20.4872 9.54027 20.4143 9.37379 20.4067 9.17987L20.4063 9.17006H20.4065V4.67887L12.4734 12.612L12.465 12.6204L12.4648 12.6202C12.2638 12.8029 12.0423 12.8793 11.827 12.7973C11.6464 12.7286 11.5432 12.5697 11.4979 12.4956L11.4977 12.4952C11.3463 12.2465 11.4013 11.9346 11.5815 11.7366L11.5894 11.728L11.5896 11.7282L19.5228 3.79476M14.454 3.40918C14.454 3.40914 14.454 3.4091 14.454 3.40907L14.685 3.3135L14.454 3.40918ZM14.454 3.40918C14.4581 3.41901 14.4618 3.42895 14.467 3.44305L14.4677 3.44496C14.4723 3.45742 14.4788 3.47522 14.4863 3.49301C14.5031 3.53273 14.5305 3.58728 14.5815 3.63835C14.683 3.73989 14.8238 3.77457 14.9726 3.7922L14.9873 3.79393L15.002 3.79394L19.5228 3.79476M19.5228 3.79476L19.8763 3.79483L15.002 3.54394L19.7727 3.54481L19.5228 3.79476Z" fill="white" stroke="white" stroke-width="0.5"/>
</g>
<defs>
<clipPath id="clip0_260_1722">
<rect width="24" height="24" fill="white"/>
</clipPath>
</defs>
</svg>
